<svg aria-hidden="true" style="position: absolute; width: 0; height: 0; overflow: hidden;" version="1.1" xmlns="http://www.w3.org/2000/svg" xmlns:xlink="http://www.w3.org/1999/xlink">
<defs>
<symbol id="icon-call" viewBox="0 0 32 32">
<path fill="#42c2ff" style="fill: var(--color1, #42c2ff)" d="M19.173 19.547l-0.64 0.507c-0.987 0.747-1.92 1.227-2.533 0.427l-3.547-4.587c-0.64-0.827 0.027-1.6 1.040-2.347l0.64-0.48-2.427-3.12-0.907 0.693c-1.6 1.227-1.867 3.52-0.64 5.093l5.413 6.96c1.227 1.6 3.52 1.867 5.093 0.64l0.907-0.693-2.4-3.093z"></path>
<path fill="#3bb8ea" style="fill: var(--color2, #3bb8ea)" d="M14.427 12.587l-2.16-2.747c-0.347-0.453-1.013-0.533-1.467-0.187v0c-0.453 0.347-0.533 1.013-0.187 1.467l2.133 2.747c0.347 0.453 1.013 0.533 1.467 0.187v0c0.48-0.347 0.56-1.013 0.213-1.467z"></path>
<path fill="#3bb8ea" style="fill: var(--color2, #3bb8ea)" d="M21.84 22.107l-2.16-2.747c-0.347-0.453-1.013-0.533-1.467-0.187v0c-0.453 0.347-0.533 1.013-0.187 1.467l2.16 2.747c0.347 0.453 1.013 0.533 1.467 0.187v0c0.453-0.347 0.533-0.987 0.187-1.467z"></path>
<path fill="#7bef89" style="fill: var(--color3, #7bef89)" d="M26.88 13.493c-0.773 2-2.96 3.12-5.013 2.587-0.587-0.16-1.093-0.4-1.573-0.747-0.24-0.187-1.413-0.027-2.107 0.080-0.16 0.027-0.293-0.187-0.16-0.32 0.4-0.507 1.013-1.307 0.907-1.493-0.427-1.013-0.453-2.213 0-3.333 0.827-1.973 3.040-3.040 5.093-2.453 2.453 0.693 3.76 3.333 2.853 5.68z"></path>
<path fill="#fff" style="fill: var(--color4, #fff)" d="M21.253 13.093h1.173c0.107 0 0.213 0.027 0.267 0.080s0.080 0.107 0.080 0.187c0 0.080-0.027 0.133-0.080 0.187s-0.133 0.080-0.213 0.080h-1.653c-0.107 0-0.213-0.027-0.267-0.107-0.053-0.053-0.107-0.133-0.107-0.213 0-0.053 0.027-0.133 0.053-0.213s0.080-0.16 0.133-0.213c0.213-0.213 0.373-0.373 0.533-0.533s0.267-0.24 0.347-0.293c0.133-0.080 0.213-0.187 0.32-0.267 0.080-0.080 0.133-0.187 0.187-0.267s0.053-0.187 0.053-0.267c0-0.107-0.027-0.187-0.080-0.267s-0.107-0.133-0.187-0.187c-0.080-0.053-0.16-0.053-0.267-0.053-0.187 0-0.347 0.080-0.453 0.267-0.027 0.027-0.053 0.080-0.080 0.187s-0.080 0.187-0.107 0.24c-0.053 0.053-0.107 0.080-0.187 0.080s-0.133-0.027-0.187-0.080-0.080-0.107-0.080-0.213c0-0.107 0.027-0.213 0.080-0.32s0.107-0.213 0.213-0.32c0.080-0.080 0.213-0.16 0.347-0.213s0.32-0.080 0.507-0.080c0.24 0 0.427 0.027 0.587 0.107 0.107 0.053 0.187 0.107 0.267 0.187s0.133 0.187 0.187 0.293c0.053 0.107 0.080 0.213 0.080 0.347 0 0.187-0.053 0.347-0.133 0.507s-0.187 0.267-0.293 0.347c-0.107 0.080-0.267 0.213-0.48 0.4-0.24 0.187-0.373 0.32-0.48 0.427 0 0.080-0.027 0.133-0.080 0.187z"></path>
<path fill="#fff" style="fill: var(--color4, #fff)" d="M24.587 13.36v-0.427h-1.12c-0.133 0-0.24-0.027-0.32-0.107s-0.107-0.16-0.107-0.267c0-0.027 0-0.053 0.027-0.080s0.027-0.053 0.053-0.080c0.027-0.027 0.053-0.053 0.053-0.107 0.027-0.027 0.053-0.080 0.080-0.107l1.2-1.6c0.080-0.107 0.133-0.187 0.187-0.24s0.107-0.080 0.187-0.080c0.24 0 0.347 0.133 0.347 0.4v1.76h0.107c0.107 0 0.213 0.027 0.267 0.053 0.080 0.027 0.107 0.107 0.107 0.213 0 0.080-0.027 0.16-0.080 0.187s-0.133 0.053-0.267 0.053h-0.133v0.427c0 0.107-0.027 0.213-0.080 0.267s-0.107 0.080-0.213 0.080c-0.080 0-0.16-0.027-0.213-0.080-0.053-0.080-0.080-0.16-0.080-0.267zM23.627 12.427h0.96v-1.307l-0.96 1.307z"></path>
<path fill="#42c2ff" style="fill: var(--color1, #42c2ff)" d="M26.747 15.76c-0.293 0-0.56 0.24-0.56 0.56 0 5.627-4.587 10.213-10.213 10.213s-10.187-4.587-10.187-10.213 4.587-10.213 10.213-10.213c1.040 0 2.027 0.16 3.013 0.453l-0.4 1.12c-0.080 0.213 0.133 0.427 0.373 0.347l2.24-0.96c0.133-0.053 0.213-0.24 0.133-0.373l-1.147-2.16c-0.107-0.213-0.427-0.187-0.507 0.027l-0.347 0.96c-1.093-0.347-2.213-0.507-3.387-0.507-6.24 0-11.307 5.067-11.307 11.307s5.067 11.307 11.307 11.307c6.24 0 11.307-5.067 11.307-11.307 0.027-0.32-0.213-0.56-0.533-0.56z"></path>
</symbol>

<symbol id="icon-instagram_f" viewBox="0 0 32 32">
<path fill="#6d6e70" style="fill: var(--color1, #6d6e70)" d="M1.647 11.493c-0.655 0.274-1.375 1.049-1.602 2.021-0.288 1.232 0.91 1.753 1.009 1.582 0.116-0.201-0.215-0.269-0.283-0.908-0.088-0.825 0.296-1.748 0.779-2.153 0.090-0.075 0.085 0.029 0.085 0.223 0 0.346-0.019 3.454-0.019 4.102 0 0.878-0.036 1.155-0.101 1.428-0.066 0.277-0.172 0.465-0.092 0.537 0.090 0.081 0.473-0.111 0.695-0.421 0.266-0.371 0.359-0.818 0.376-1.302 0.020-0.584 0.019-1.511 0.020-2.039 0.001-0.485 0.008-1.904-0.009-2.758-0.004-0.209-0.585-0.429-0.858-0.314zM31.856 16.103c-0.095 0-0.138 0.098-0.174 0.263-0.124 0.573-0.255 0.703-0.424 0.703-0.188 0-0.358-0.284-0.401-0.852-0.034-0.447-0.029-1.269 0.015-2.087 0.009-0.168-0.037-0.334-0.488-0.498-0.194-0.070-0.476-0.174-0.616 0.165-0.397 0.958-0.552 1.718-0.588 2.027-0.002 0.016-0.021 0.019-0.025-0.018-0.023-0.247-0.075-0.697-0.082-1.641-0.001-0.184-0.040-0.341-0.244-0.47-0.132-0.083-0.533-0.231-0.677-0.055-0.125 0.143-0.27 0.529-0.42 0.987-0.122 0.372-0.207 0.623-0.207 0.623s0.002-1.003 0.003-1.384c0.001-0.144-0.098-0.191-0.128-0.2-0.134-0.039-0.397-0.104-0.509-0.104-0.138 0-0.172 0.077-0.172 0.189 0 0.015-0.022 1.321-0.022 2.234 0 0.040 0 0.083 0 0.129-0.076 0.42-0.324 0.989-0.593 0.989s-0.396-0.238-0.396-1.327c0-0.635 0.019-0.911 0.028-1.371 0.006-0.265 0.016-0.468 0.015-0.514-0.002-0.141-0.246-0.213-0.36-0.239s-0.214-0.037-0.291-0.032c-0.11 0.006-0.187 0.078-0.187 0.177 0 0.053 0.001 0.154 0.001 0.154-0.141-0.222-0.369-0.377-0.52-0.422-0.408-0.121-0.833-0.014-1.154 0.435-0.255 0.357-0.409 0.761-0.469 1.341-0.044 0.424-0.030 0.855 0.049 1.218-0.095 0.411-0.271 0.579-0.464 0.579-0.28 0-0.483-0.457-0.46-1.249 0.016-0.52 0.12-0.886 0.233-1.414 0.049-0.225 0.009-0.343-0.090-0.456-0.091-0.104-0.284-0.157-0.562-0.091-0.198 0.046-0.481 0.096-0.74 0.135 0 0 0.016-0.062 0.028-0.172 0.067-0.576-0.559-0.529-0.759-0.345-0.119 0.11-0.2 0.239-0.231 0.473-0.049 0.37 0.253 0.544 0.253 0.544-0.099 0.453-0.341 1.045-0.592 1.472-0.134 0.229-0.237 0.399-0.369 0.58-0-0.051-0.001-0.121-0.001-0.192l-0-0.009c-0.003-0.952 0.010-1.702 0.015-1.972 0.006-0.265 0.016-0.462 0.015-0.508-0.001-0.103-0.062-0.143-0.187-0.192-0.111-0.044-0.242-0.074-0.379-0.085-0.172-0.013-0.276 0.078-0.273 0.186 0.001 0.020 0.001 0.145 0.001 0.145-0.141-0.222-0.369-0.377-0.52-0.422-0.408-0.121-0.833-0.014-1.154 0.435-0.255 0.357-0.422 0.857-0.469 1.336-0.044 0.447-0.036 0.826 0.024 1.146-0.065 0.32-0.251 0.655-0.462 0.655-0.269 0-0.423-0.238-0.423-1.327 0-0.635 0.019-0.911 0.028-1.371 0.005-0.265 0.016-0.468 0.015-0.514-0.002-0.141-0.246-0.213-0.36-0.239-0.119-0.028-0.222-0.038-0.301-0.032-0.104 0.008-0.177 0.101-0.177 0.17v0.16c-0.141-0.222-0.369-0.377-0.52-0.422-0.408-0.121-0.83-0.012-1.154 0.435-0.211 0.291-0.381 0.615-0.469 1.33-0.025 0.207-0.037 0.4-0.035 0.581-0.084 0.514-0.455 1.106-0.759 1.106-0.178 0-0.347-0.345-0.347-1.079 0-0.978 0.061-2.371 0.071-2.505 0 0 0.384-0.007 0.458-0.007 0.191-0.002 0.365 0.002 0.619-0.011 0.128-0.007 0.251-0.465 0.119-0.522-0.060-0.026-0.482-0.048-0.65-0.052-0.141-0.003-0.533-0.032-0.533-0.032s0.035-0.924 0.043-1.022c0.007-0.081-0.098-0.123-0.159-0.149-0.147-0.062-0.278-0.092-0.434-0.124-0.215-0.044-0.313-0.001-0.332 0.181-0.029 0.275-0.044 1.083-0.044 1.083-0.158 0-0.697-0.031-0.855-0.031-0.147 0-0.305 0.631-0.102 0.639 0.233 0.009 0.64 0.017 0.91 0.025 0 0-0.012 1.416-0.012 1.853 0 0.046 0 0.091 0.001 0.135-0.148 0.773-0.671 1.191-0.671 1.191 0.112-0.512-0.117-0.896-0.53-1.221-0.152-0.12-0.453-0.347-0.789-0.595 0 0 0.195-0.192 0.367-0.578 0.122-0.273 0.128-0.586-0.173-0.655-0.496-0.114-0.905 0.25-1.027 0.639-0.095 0.301-0.044 0.525 0.141 0.757 0.014 0.017 0.028 0.034 0.043 0.052-0.112 0.216-0.266 0.506-0.396 0.732-0.362 0.626-0.635 1.121-0.841 1.121-0.165 0-0.163-0.502-0.163-0.973 0-0.406 0.030-1.015 0.054-1.647 0.008-0.209-0.097-0.328-0.272-0.435-0.106-0.065-0.333-0.194-0.465-0.194-0.197 0-0.764 0.027-1.301 1.578-0.068 0.196-0.2 0.552-0.2 0.552l0.011-1.865c0-0.044-0.023-0.086-0.077-0.115-0.090-0.049-0.332-0.149-0.546-0.149-0.102 0-0.153 0.048-0.153 0.142l-0.019 2.918c0 0.222 0.006 0.48 0.028 0.594s0.057 0.205 0.101 0.26c0.044 0.055 0.094 0.096 0.178 0.114 0.078 0.016 0.503 0.071 0.525-0.092 0.027-0.195 0.027-0.406 0.251-1.191 0.348-1.223 0.801-1.82 1.014-2.033 0.037-0.037 0.080-0.039 0.078 0.021-0.009 0.268-0.041 0.939-0.063 1.508-0.058 1.524 0.22 1.806 0.616 1.806 0.303 0 0.73-0.301 1.188-1.063 0.285-0.475 0.563-0.941 0.762-1.277 0.139 0.129 0.295 0.267 0.45 0.415 0.362 0.343 0.481 0.67 0.402 0.979-0.060 0.237-0.287 0.48-0.691 0.243-0.118-0.069-0.168-0.123-0.286-0.201-0.064-0.042-0.161-0.054-0.219-0.011-0.151 0.114-0.238 0.259-0.287 0.439-0.048 0.175 0.127 0.267 0.308 0.348 0.156 0.070 0.492 0.133 0.706 0.14 0.834 0.028 1.503-0.403 1.968-1.514 0.083 0.959 0.438 1.502 1.054 1.502 0.412 0 0.824-0.532 1.005-1.056 0.052 0.213 0.129 0.399 0.228 0.556 0.474 0.752 1.395 0.59 1.857-0.048 0.143-0.197 0.165-0.268 0.165-0.268 0.067 0.603 0.553 0.813 0.831 0.813 0.311 0 0.633-0.147 0.858-0.654 0.030 0.063 0.059 0.114 0.090 0.164l-0.004-0.006c0.474 0.752 1.395 0.59 1.857-0.048 0.022-0.030 0.041-0.057 0.057-0.082l0.014 0.396-0.426 0.39c-0.714 0.654-1.256 1.15-1.295 1.728-0.051 0.737 0.546 1.010 0.999 1.046 0.48 0.038 0.891-0.227 1.143-0.598 0.222-0.327 0.368-1.029 0.357-1.724-0.004-0.278-0.011-0.631-0.017-1.010 0.25-0.291 0.533-0.659 0.793-1.089 0.283-0.469 0.587-1.099 0.742-1.589 0 0 0.264 0.002 0.545-0.016 0.090-0.006 0.116 0.012 0.099 0.078-0.020 0.080-0.355 1.373-0.049 2.235 0.21 0.59 0.682 0.78 0.962 0.78 0.328 0 0.641-0.248 0.809-0.615 0.020 0.041 0.041 0.081 0.065 0.117 0.474 0.752 1.392 0.589 1.857-0.048 0.105-0.144 0.165-0.268 0.165-0.268 0.1 0.624 0.585 0.817 0.863 0.817 0.289 0 0.564-0.119 0.787-0.646 0.009 0.232 0.024 0.422 0.047 0.482 0.014 0.037 0.096 0.083 0.156 0.105 0.265 0.098 0.535 0.052 0.635 0.032 0.069-0.014 0.123-0.070 0.131-0.213 0.019-0.377 0.008-1.009 0.122-1.479 0.192-0.789 0.37-1.095 0.455-1.247 0.047-0.085 0.101-0.099 0.103-0.009 0.004 0.182 0.013 0.716 0.087 1.433 0.055 0.527 0.127 0.839 0.183 0.938 0.16 0.282 0.357 0.296 0.518 0.296 0.102 0 0.316-0.028 0.297-0.208-0.009-0.088 0.007-0.628 0.196-1.406 0.123-0.508 0.329-0.966 0.403-1.134 0.027-0.062 0.040-0.013 0.040-0.004-0.016 0.35-0.051 1.493 0.092 2.118 0.193 0.847 0.751 0.942 0.946 0.942 0.415 0 0.755-0.316 0.87-1.148 0.028-0.2-0.013-0.355-0.135-0.355zM14.453 15.589c-0.024 0.44-0.11 0.808-0.247 1.075-0.249 0.484-0.742 0.637-0.96-0.062-0.157-0.504-0.103-1.191-0.038-1.562 0.097-0.551 0.339-0.941 0.718-0.904 0.389 0.038 0.578 0.537 0.528 1.453zM18.251 15.595c-0.022 0.416-0.13 0.833-0.247 1.069-0.243 0.487-0.75 0.639-0.96-0.062-0.144-0.479-0.109-1.099-0.038-1.489 0.092-0.507 0.316-0.977 0.718-0.977 0.39-0 0.583 0.428 0.528 1.46zM18.35 18.43c-0.005 0.758-0.125 1.423-0.38 1.616-0.363 0.274-0.851 0.068-0.75-0.485 0.089-0.489 0.512-0.989 1.131-1.6-0 0 0.001 0.139-0.001 0.469zM24.905 15.6c-0.021 0.456-0.122 0.813-0.247 1.064-0.243 0.487-0.746 0.638-0.96-0.062-0.116-0.382-0.122-1.019-0.038-1.551 0.085-0.542 0.323-0.952 0.718-0.915 0.389 0.036 0.571 0.537 0.528 1.464z"></path>
</symbol>

<symbol id="icon-telegram" viewBox="0 0 32 32">
<path fill="#6d6e70" d="M10.333 16.716l14.41-8.875c0.259-0.159 0.525 0.191 0.303 0.397l-11.893 11.055c-0.418 0.389-0.688 0.91-0.764 1.475l-0.405 3.002c-0.054 0.401-0.617 0.441-0.727 0.053l-1.558-5.475c-0.178-0.625 0.082-1.291 0.634-1.632z"></path>
<path d="M0.565 15.429l7.373 2.752 2.854 9.178c0.183 0.588 0.901 0.805 1.379 0.415l4.11-3.351c0.431-0.351 1.044-0.369 1.495-0.042l7.413 5.382c0.51 0.371 1.233 0.091 1.361-0.525l5.43-26.122c0.14-0.674-0.522-1.236-1.164-0.988l-30.261 11.674c-0.747 0.288-0.74 1.345 0.009 1.626zM10.333 16.716l14.41-8.875c0.259-0.159 0.525 0.191 0.303 0.397l-11.893 11.055c-0.418 0.389-0.688 0.91-0.764 1.475l-0.405 3.002c-0.054 0.401-0.617 0.441-0.727 0.053l-1.558-5.475c-0.178-0.625 0.082-1.291 0.634-1.632z"></path>
</symbol>

<symbol id="icon-facebook" viewBox="0 0 32 32">
<path d="M13.246 26.392h4.306v-10.398h2.89c0 0 0.271-1.678 0.403-3.512h-3.276v-2.393c0-0.357 0.469-0.838 0.934-0.838h2.346v-3.643h-3.191c-4.518 0-4.412 3.502-4.412 4.025v2.861h-2.096v3.499h2.096v10.399z"></path>
<path d="M0 0v32h32v-32h-32zM30.021 30.021h-28.041v-28.041h28.041v28.041z"></path>
</symbol>

<symbol id="icon-telephone" viewBox="0 0 32 32">
<path d="M31 32c-17.113-0.019-30.981-13.887-31-30.998v-0.002c0-0.552 0.448-1 1-1v0h5.69c0.003 0 0.007 0 0.010 0 1.026 0 1.954 0.417 2.624 1.092l0 0 3.924 3.922c0.543 0.543 0.879 1.293 0.879 2.122s-0.336 1.579-0.879 2.122l-0 0-2.848 2.838c2.23 4.035 5.469 7.274 9.382 9.442l0.122 0.062 2.838-2.84c0.543-0.543 1.293-0.878 2.121-0.878s1.578 0.336 2.121 0.878l3.924 3.924c0.675 0.671 1.092 1.6 1.092 2.626 0 0.001 0 0.001 0 0.002v-0 5.688c0 0.552-0.448 1-1 1v0zM2.018 2c0.561 15.223 12.759 27.422 27.93 27.982l0.052 0.002v-4.672c0-0.001 0-0.003 0-0.004 0-0.476-0.193-0.906-0.506-1.218l-3.924-3.924c-0.181-0.181-0.431-0.293-0.707-0.293s-0.526 0.112-0.707 0.293v0l-3.356 3.36c-0.181 0.181-0.431 0.293-0.707 0.293-0.164 0-0.318-0.039-0.455-0.109l0.006 0.003c-4.919-2.527-8.826-6.434-11.286-11.208l-0.068-0.144c-0.068-0.132-0.108-0.287-0.108-0.452 0-0.276 0.112-0.525 0.292-0.706l3.36-3.358c0.181-0.181 0.294-0.431 0.294-0.708s-0.112-0.527-0.294-0.708l-3.924-3.922c-0.311-0.313-0.741-0.506-1.217-0.506-0.001 0-0.002 0-0.003 0h0z"></path>
</symbol>

</defs>
</svg>
